# This file uses centimeters as units for non-parametric coordinates.

mtllib island_2_snow.mtl
g default
v -5.178399 3.969517 12.114990
v -4.460067 4.291787 11.871738
v -3.839050 4.203303 12.275456
v -4.822415 3.793369 12.523272
v -3.818842 3.737250 11.782644
v -4.623346 4.425053 12.449620
v -5.152141 4.144214 11.592472
v -3.387121 3.450563 12.240664
v -3.500017 3.086621 11.549554
v -5.362281 3.074243 11.962584
v -4.868954 2.942959 12.489312
v -5.525605 3.072199 11.350871
v -4.301675 3.805755 11.370211
v -5.019826 3.386121 11.054891
v -4.323147 3.727649 12.873809
vt 0.000000 0.000000
vt 0.000000 0.000000
vt 0.000000 0.000000
vt 0.000000 0.000000
vt 0.000000 0.000000
vt 0.000000 0.000000
vt 0.000000 0.000000
vt 0.000000 0.000000
vt 0.000000 0.000000
vt 0.000000 0.000000
vt 0.000000 0.000000
vt 0.000000 0.000000
vt 0.000000 0.000000
vt 0.000000 0.000000
vt 0.000000 0.000000
vt 0.000000 0.000000
vt 0.000000 0.000000
vt 0.000000 0.000000
vt 0.000000 0.000000
vt 0.000000 0.000000
vt 0.000000 0.000000
vt 0.000000 0.000000
vt 0.000000 0.000000
vt 0.000000 0.000000
vt 0.000000 0.000000
vt 0.000000 0.000000
vt 0.000000 0.000000
vt 0.000000 0.000000
vt 0.000000 0.000000
vt 0.000000 0.000000
vt 0.000000 0.000000
vt 0.000000 0.000000
vt 0.000000 0.000000
vt 0.000000 0.000000
vt 0.000000 0.000000
vt 0.000000 0.000000
vt 0.000000 0.000000
vt 0.000000 0.000000
vt 0.000000 0.000000
vt 0.000000 0.000000
vt 0.000000 0.000000
vt 0.000000 0.000000
vt 0.000000 0.000000
vt 0.000000 0.000000
vt 0.000000 0.000000
vt 0.000000 0.000000
vt 0.000000 0.000000
vt 0.000000 0.000000
vt 0.000000 0.000000
vt 0.000000 0.000000
vt 0.000000 0.000000
vt 0.000000 0.000000
vt 0.000000 0.000000
vt 0.000000 0.000000
vt 0.000000 0.000000
vt 0.000000 0.000000
vt 0.000000 0.000000
vt 0.000000 0.000000
vt 0.000000 0.000000
vt 0.000000 0.000000
vn 0.236946 0.959198 -0.154256
vn 0.236946 0.959198 -0.154256
vn 0.236946 0.959198 -0.154256
vn 0.760973 0.514494 -0.395242
vn 0.760973 0.514494 -0.395242
vn 0.760973 0.514494 -0.395242
vn -0.656692 0.288209 0.696916
vn -0.656692 0.288209 0.696916
vn -0.656692 0.288209 0.696916
vn -0.725505 0.031982 0.687473
vn -0.725505 0.031982 0.687473
vn -0.725505 0.031982 0.687473
vn 0.330432 0.590216 0.736519
vn 0.330432 0.590216 0.736519
vn 0.330432 0.590216 0.736519
vn 0.561903 0.612388 -0.556099
vn 0.561903 0.612388 -0.556099
vn 0.561903 0.612388 -0.556099
vn 0.768071 0.480686 -0.423093
vn 0.768071 0.480686 -0.423093
vn 0.768071 0.480686 -0.423093
vn -0.930904 0.268493 0.247649
vn -0.930904 0.268493 0.247649
vn -0.930904 0.268493 0.247649
vn 0.018256 0.580465 -0.814080
vn 0.018256 0.580465 -0.814080
vn 0.018256 0.580465 -0.814080
vn -0.531351 0.261408 0.805811
vn -0.531351 0.261408 0.805811
vn -0.531351 0.261408 0.805811
vn -0.574724 -0.001229 0.818347
vn -0.574724 -0.001229 0.818347
vn -0.574724 -0.001229 0.818347
vn 0.593988 0.322556 0.736977
vn 0.593988 0.322556 0.736977
vn 0.593988 0.322556 0.736977
vn 0.598276 0.513534 -0.615101
vn 0.598276 0.513534 -0.615101
vn 0.598276 0.513534 -0.615101
vn 0.115338 0.731277 -0.672258
vn 0.115338 0.731277 -0.672258
vn 0.115338 0.731277 -0.672258
vn -0.690400 0.695820 0.197946
vn -0.690400 0.695820 0.197946
vn -0.690400 0.695820 0.197946
vn 0.453346 0.707360 -0.542327
vn 0.453346 0.707360 -0.542327
vn 0.453346 0.707360 -0.542327
vn -0.979978 0.198373 0.017080
vn -0.979978 0.198373 0.017080
vn -0.979978 0.198373 0.017080
vn -0.750504 0.014685 0.660703
vn -0.750504 0.014685 0.660703
vn -0.750504 0.014685 0.660703
vn -0.103813 0.962337 -0.251258
vn -0.103813 0.962337 -0.251258
vn -0.103813 0.962337 -0.251258
vn -0.630074 0.372999 -0.681086
vn -0.630074 0.372999 -0.681086
vn -0.630074 0.372999 -0.681086
s off
g polySurface6 snow group1
usemtl island_3:IslaSG1
f 2/1/1 6/2/2 3/3/3
f 5/4/4 8/5/5 9/6/6
f 4/7/7 6/8/8 1/9/9
f 11/10/10 1/11/11 10/12/12
f 3/13/13 6/14/14 15/15/15
f 5/16/16 13/17/17 3/18/18
f 8/19/19 5/20/20 3/21/21
f 12/22/22 10/23/23 7/24/24
f 7/25/25 13/26/26 14/27/27
f 6/28/28 4/29/29 15/30/30
f 4/31/31 11/32/32 15/33/33
f 8/34/34 3/35/35 15/36/36
f 13/37/37 5/38/38 9/39/39
f 2/40/40 13/41/41 7/42/42
f 6/43/43 7/44/44 1/45/45
f 13/46/46 2/47/47 3/48/48
f 1/49/49 7/50/50 10/51/51
f 11/52/52 4/53/53 1/54/54
f 6/55/55 2/56/56 7/57/57
f 12/58/58 7/59/59 14/60/60
g default
v -2.983804 5.210423 17.450663
v -4.045575 5.166678 16.986918
v -4.390851 5.329787 18.288106
v -4.417275 5.060311 17.183887
v -3.293234 5.249126 18.313063
v -3.564683 5.075345 16.741261
v -4.114147 5.782184 17.817910
v -3.370609 5.446533 17.896866
v -3.649655 5.447592 17.404040
v -3.759380 5.679904 18.355774
v -2.868409 5.263710 16.713572
v -4.492246 5.950231 17.275896
v -3.365143 4.745253 16.151631
v -3.894421 4.725545 16.491387
v -2.791754 4.353620 16.006537
v -2.399795 4.439331 17.381165
v -2.519960 4.350456 16.841616
v -2.309112 4.294679 18.009327
v -2.727820 4.942039 17.961181
v -2.949584 4.700733 18.589188
v -4.706463 4.979843 17.753521
v -4.605352 4.278138 17.805777
v -4.302283 4.594952 18.406031
v -3.346744 4.370356 18.954964
v -3.766180 4.962760 18.818878
v -4.571609 4.437023 17.100823
v -3.872843 4.129793 19.066968
v -4.255043 4.737543 16.830265
vt 0.000000 0.000000
vt 0.000000 0.000000
vt 0.000000 0.000000
vt 0.000000 0.000000
vt 0.000000 0.000000
vt 0.000000 0.000000
vt 0.000000 0.000000
vt 0.000000 0.000000
vt 0.000000 0.000000
vt 0.000000 0.000000
vt 0.000000 0.000000
vt 0.000000 0.000000
vt 0.000000 0.000000
vt 0.000000 0.000000
vt 0.000000 0.000000
vt 0.000000 0.000000
vt 0.000000 0.000000
vt 0.000000 0.000000
vt 0.000000 0.000000
vt 0.000000 0.000000
vt 0.000000 0.000000
vt 0.000000 0.000000
vt 0.000000 0.000000
vt 0.000000 0.000000
vt 0.000000 0.000000
vt 0.000000 0.000000
vt 0.000000 0.000000
vt 0.000000 0.000000
vt 0.000000 0.000000
vt 0.000000 0.000000
vt 0.000000 0.000000
vt 0.000000 0.000000
vt 0.000000 0.000000
vt 0.000000 0.000000
vt 0.000000 0.000000
vt 0.000000 0.000000
vt 0.000000 0.000000
vt 0.000000 0.000000
vt 0.000000 0.000000
vt 0.000000 0.000000
vt 0.000000 0.000000
vt 0.000000 0.000000
vt 0.000000 0.000000
vt 0.000000 0.000000
vt 0.000000 0.000000
vt 0.000000 0.000000
vt 0.000000 0.000000
vt 0.000000 0.000000
vt 0.000000 0.000000
vt 0.000000 0.000000
vt 0.000000 0.000000
vt 0.000000 0.000000
vt 0.000000 0.000000
vt 0.000000 0.000000
vt 0.000000 0.000000
vt 0.000000 0.000000
vt 0.000000 0.000000
vt 0.000000 0.000000
vt 0.000000 0.000000
vt 0.000000 0.000000
vt 0.000000 0.000000
vt 0.000000 0.000000
vt 0.000000 0.000000
vt 0.000000 0.000000
vt 0.000000 0.000000
vt 0.000000 0.000000
vt 0.000000 0.000000
vt 0.000000 0.000000
vt 0.000000 0.000000
vt 0.000000 0.000000
vt 0.000000 0.000000
vt 0.000000 0.000000
vt 0.000000 0.000000
vt 0.000000 0.000000
vt 0.000000 0.000000
vt 0.000000 0.000000
vt 0.000000 0.000000
vt 0.000000 0.000000
vt 0.000000 0.000000
vt 0.000000 0.000000
vt 0.000000 0.000000
vt 0.000000 0.000000
vt 0.000000 0.000000
vt 0.000000 0.000000
vt 0.000000 0.000000
vt 0.000000 0.000000
vt 0.000000 0.000000
vt 0.000000 0.000000
vt 0.000000 0.000000
vt 0.000000 0.000000
vt 0.000000 0.000000
vt 0.000000 0.000000
vt 0.000000 0.000000
vt 0.000000 0.000000
vt 0.000000 0.000000
vt 0.000000 0.000000
vt 0.000000 0.000000
vt 0.000000 0.000000
vt 0.000000 0.000000
vt 0.000000 0.000000
vt 0.000000 0.000000
vt 0.000000 0.000000
vt 0.000000 0.000000
vt 0.000000 0.000000
vt 0.000000 0.000000
vt 0.000000 0.000000
vt 0.000000 0.000000
vt 0.000000 0.000000
vt 0.000000 0.000000
vt 0.000000 0.000000
vt 0.000000 0.000000
vt 0.000000 0.000000
vt 0.000000 0.000000
vt 0.000000 0.000000
vn 0.673809 0.708240 0.210659
vn 0.673809 0.708240 0.210659
vn 0.673809 0.708240 0.210659
vn 0.627812 0.626198 0.462307
vn 0.627812 0.626198 0.462307
vn 0.627812 0.626198 0.462307
vn -0.630067 0.048435 0.775029
vn -0.630067 0.048435 0.775029
vn -0.630067 0.048435 0.775029
vn -0.089611 0.863437 -0.496435
vn -0.089611 0.863437 -0.496435
vn -0.089611 0.863437 -0.496435
vn -0.378544 0.747120 -0.546366
vn -0.378544 0.747120 -0.546366
vn -0.378544 0.747120 -0.546366
vn 0.325772 0.937953 0.118811
vn 0.325772 0.937953 0.118811
vn 0.325772 0.937953 0.118811
vn 0.333824 0.923895 -0.187029
vn 0.333824 0.923895 -0.187029
vn 0.333824 0.923895 -0.187029
vn -0.218028 0.694971 -0.685185
vn -0.218028 0.694971 -0.685185
vn -0.218028 0.694971 -0.685185
vn 0.793201 0.585747 0.166528
vn 0.793201 0.585747 0.166528
vn 0.793201 0.585747 0.166528
vn -0.468867 0.758017 0.453402
vn -0.468867 0.758017 0.453402
vn -0.468867 0.758017 0.453402
vn 0.674523 0.707679 0.210260
vn 0.674523 0.707679 0.210260
vn 0.674523 0.707679 0.210260
vn 0.223952 0.609612 -0.760407
vn 0.223952 0.609612 -0.760407
vn 0.223952 0.609612 -0.760407
vn -0.889734 -0.027849 -0.455629
vn -0.889734 -0.027849 -0.455629
vn -0.889734 -0.027849 -0.455629
vn -0.889712 0.344083 0.300033
vn -0.889712 0.344083 0.300033
vn -0.889712 0.344083 0.300033
vn 0.914720 0.313212 -0.255314
vn 0.914720 0.313212 -0.255314
vn 0.914720 0.313212 -0.255314
vn 0.732520 0.507530 0.453683
vn 0.732520 0.507530 0.453683
vn 0.732520 0.507530 0.453683
vn -0.365019 0.507489 0.780523
vn -0.365019 0.507489 0.780523
vn -0.365019 0.507489 0.780523
vn -0.869414 -0.089086 0.485987
vn -0.869414 -0.089086 0.485987
vn -0.869414 -0.089086 0.485987
vn 0.372705 0.450275 0.811384
vn 0.372705 0.450275 0.811384
vn 0.372705 0.450275 0.811384
vn 0.341206 0.920334 -0.191216
vn 0.341206 0.920334 -0.191216
vn 0.341206 0.920334 -0.191216
vn 0.388924 0.597012 0.701652
vn 0.388924 0.597012 0.701652
vn 0.388924 0.597012 0.701652
vn -0.244806 0.831626 -0.498465
vn -0.244806 0.831626 -0.498465
vn -0.244806 0.831626 -0.498465
vn 0.420918 0.515275 -0.746538
vn 0.420918 0.515275 -0.746538
vn 0.420918 0.515275 -0.746538
vn -0.240410 0.810031 -0.534838
vn -0.240410 0.810031 -0.534838
vn -0.240410 0.810031 -0.534838
vn 0.482993 0.861852 -0.154689
vn 0.482993 0.861852 -0.154689
vn 0.482993 0.861852 -0.154689
vn -0.389158 0.767491 0.509424
vn -0.389158 0.767491 0.509424
vn -0.389158 0.767491 0.509424
vn -0.512596 0.503972 -0.695167
vn -0.512596 0.503972 -0.695167
vn -0.512596 0.503972 -0.695167
vn -0.873365 0.270258 -0.405208
vn -0.873365 0.270258 -0.405208
vn -0.873365 0.270258 -0.405208
vn -0.699833 0.284733 0.655103
vn -0.699833 0.284733 0.655103
vn -0.699833 0.284733 0.655103
vn 0.498446 0.466947 0.730419
vn 0.498446 0.466947 0.730419
vn 0.498446 0.466947 0.730419
vn -0.478836 0.050276 -0.876464
vn -0.478836 0.050276 -0.876464
vn -0.478836 0.050276 -0.876464
vn 0.791339 0.606379 -0.078018
vn 0.791339 0.606379 -0.078018
vn 0.791339 0.606379 -0.078018
vn -0.578411 0.513667 -0.633709
vn -0.578411 0.513667 -0.633709
vn -0.578411 0.513667 -0.633709
vn -0.759987 0.267145 -0.592497
vn -0.759987 0.267145 -0.592497
vn -0.759987 0.267145 -0.592497
vn 0.545735 0.822757 0.158885
vn 0.545735 0.822757 0.158885
vn 0.545735 0.822757 0.158885
vn -0.855179 -0.019955 0.517948
vn -0.855179 -0.019955 0.517948
vn -0.855179 -0.019955 0.517948
vn 0.520950 0.847639 -0.100598
vn 0.520950 0.847639 -0.100598
vn 0.520950 0.847639 -0.100598
vn 0.906078 0.304523 -0.293750
vn 0.906078 0.304523 -0.293750
vn 0.906078 0.304523 -0.293750
s off
g snow group1 polySurface5
usemtl island_3:IslaSG1
f 23/61/61 25/62/62 20/63/63
f 20/64/64 35/65/65 34/66/66
f 18/67/67 38/68/68 40/69/69
f 17/70/70 24/71/71 21/72/72
f 29/73/73 21/74/74 28/75/75
f 16/76/76 26/77/77 24/78/78
f 25/79/79 23/80/80 24/81/81
f 29/82/82 17/83/83 21/84/84
f 26/85/85 16/86/86 31/87/87
f 25/88/88 22/89/89 18/90/90
f 16/91/91 23/92/92 20/93/93
f 30/94/94 28/95/95 26/96/96
f 27/97/97 19/98/98 36/99/99
f 36/100/100 18/101/101 27/102/102
f 32/103/103 26/104/104 31/105/105
f 33/106/106 34/107/107 35/108/108
f 18/109/109 40/110/110 25/111/111
f 36/112/112 37/113/113 38/114/114
f 39/115/115 35/116/116 40/117/117
f 23/118/118 16/119/119 24/120/120
f 35/121/121 20/122/122 40/123/123
f 24/124/124 26/125/125 21/126/126
f 17/127/127 27/128/128 24/129/129
f 21/130/130 26/131/131 28/132/132
f 22/133/133 25/134/134 24/135/135
f 22/136/136 27/137/137 18/138/138
f 17/139/139 43/140/140 19/141/141
f 19/142/142 41/143/143 36/144/144
f 40/145/145 38/146/146 42/147/147
f 20/148/148 25/149/149 40/150/150
f 17/151/151 19/152/152 27/153/153
f 16/154/154 34/155/155 31/156/156
f 43/157/157 17/158/158 29/159/159
f 43/160/160 41/161/161 19/162/162
f 16/163/163 20/164/164 34/165/165
f 18/166/166 36/167/167 38/168/168
f 27/169/169 22/170/170 24/171/171
f 26/172/172 32/173/173 30/174/174
