# This file uses centimeters as units for non-parametric coordinates.

mtllib island_mountains.mtl
g default
v 5.715093 4.616445 1.391085
v 5.668298 4.720579 1.107834
v 5.277105 4.879200 1.591195
v 5.429582 4.676913 2.065145
v 4.904973 4.923590 2.084076
v 5.656407 4.351060 1.687359
v 4.937646 4.819213 1.518325
v 5.193749 4.793936 1.057288
v 5.027954 4.731733 2.517138
vt 0.000000 0.000000
vt 0.000000 0.000000
vt 0.000000 0.000000
vt 0.000000 0.000000
vt 0.000000 0.000000
vt 0.000000 0.000000
vt 0.000000 0.000000
vt 0.000000 0.000000
vt 0.000000 0.000000
vn 0.569441 0.797548 0.199132
vn 0.569441 0.797548 0.199132
vn 0.569441 0.797548 0.199132
vn 0.420277 0.875501 0.238464
vn 0.420277 0.875501 0.238464
vn 0.420277 0.875501 0.238464
vn 0.813314 0.581671 -0.013390
vn 0.813314 0.581671 -0.013390
vn 0.813314 0.581671 -0.013390
vn 0.595176 0.536398 0.598367
vn 0.595176 0.536398 0.598367
vn 0.595176 0.536398 0.598367
vn -0.144488 0.980390 -0.134009
vn -0.144488 0.980390 -0.134009
vn -0.144488 0.980390 -0.134009
vn 0.418024 0.868590 0.266098
vn 0.418024 0.868590 0.266098
vn 0.418024 0.868590 0.266098
vn -0.131834 0.973434 -0.187209
vn -0.131834 0.973434 -0.187209
vn -0.131834 0.973434 -0.187209
vn 0.169054 0.968824 -0.181113
vn 0.169054 0.968824 -0.181113
vn 0.169054 0.968824 -0.181113
s off
g polySurface2 mountains island_obj
usemtl IslaSG1
f 1/1/1 2/2/2 3/3/3
f 4/4/4 3/3/5 5/5/6
f 4/4/7 6/6/8 3/3/9
f 6/6/10 1/1/11 3/3/12
f 7/7/13 3/3/14 8/8/15
f 4/4/16 5/5/17 9/9/18
f 7/7/19 5/5/20 3/3/21
f 2/2/22 8/8/23 3/3/24
g default
v -0.563184 5.519042 -5.223592
v -1.063128 5.459335 -4.986050
v -0.577700 5.339563 -4.309780
v 0.048451 5.147334 -4.363920
v 0.179613 5.505719 -5.418928
v 0.701475 5.288002 -4.701785
v 1.030400 5.380330 -5.315526
v 1.839369 5.138099 -4.855494
v 1.808137 4.842368 -5.762439
v 0.233541 4.450227 -5.687924
v 0.867331 4.816312 -5.769382
v -0.244633 4.775004 -5.482845
v -1.073830 4.967325 -5.693100
v 1.205380 5.186264 -4.527006
vt 0.000000 0.000000
vt 0.000000 0.000000
vt 0.000000 0.000000
vt 0.000000 0.000000
vt 0.000000 0.000000
vt 0.000000 0.000000
vt 0.000000 0.000000
vt 0.000000 0.000000
vt 0.000000 0.000000
vt 0.000000 0.000000
vt 0.000000 0.000000
vt 0.000000 0.000000
vt 0.000000 0.000000
vt 0.000000 0.000000
vt 0.000000 0.000000
vt 0.000000 0.000000
vt 0.000000 0.000000
vt 0.000000 0.000000
vt 0.000000 0.000000
vn -0.025807 0.981003 0.192267
vn -0.025807 0.981003 0.192267
vn -0.025807 0.981003 0.192267
vn 0.303075 0.934179 0.188295
vn 0.303075 0.934179 0.188295
vn 0.303075 0.934179 0.188295
vn 0.103990 0.937717 0.331470
vn 0.103990 0.937717 0.331470
vn 0.103990 0.937717 0.331470
vn -0.040163 0.947606 0.316907
vn -0.040163 0.947606 0.316907
vn -0.040163 0.947606 0.316907
vn 0.423710 0.856770 -0.293962
vn 0.423710 0.856770 -0.293962
vn 0.423710 0.856770 -0.293962
vn -0.251963 0.226882 -0.940765
vn -0.251963 0.226882 -0.940765
vn -0.251963 0.226882 -0.940765
vn -0.244087 0.224240 -0.943471
vn -0.244087 0.224240 -0.943471
vn -0.244087 0.224240 -0.943471
vn 0.117661 0.970790 0.209098
vn 0.117661 0.970790 0.209098
vn 0.117661 0.970790 0.209098
vn 0.182206 0.583910 -0.791107
vn 0.182206 0.583910 -0.791107
vn 0.182206 0.583910 -0.791107
vn -0.345312 0.772774 -0.532522
vn -0.345312 0.772774 -0.532522
vn -0.345312 0.772774 -0.532522
vn 0.122425 0.969684 0.211485
vn 0.122425 0.969684 0.211485
vn 0.122425 0.969684 0.211485
vn -0.011681 0.628922 -0.777381
vn -0.011681 0.628922 -0.777381
vn -0.011681 0.628922 -0.777381
vn 0.175976 0.964223 0.198258
vn 0.175976 0.964223 0.198258
vn 0.175976 0.964223 0.198258
s off
g mountains island_obj polySurface3
usemtl IslaSG1
f 10/10/25 11/11/26 12/12/27
f 13/13/28 10/10/29 12/12/30
f 13/14/31 14/15/32 10/10/33
f 13/13/34 15/16/35 14/15/36
f 16/17/37 17/18/38 18/19/39
f 19/20/40 14/21/41 20/22/42
f 21/23/43 10/24/44 14/21/45
f 15/25/46 16/17/47 14/15/48
f 16/17/49 20/26/50 14/15/51
f 22/27/52 11/11/53 10/24/54
f 16/17/55 15/16/56 23/28/57
f 16/17/58 18/19/59 20/22/60
f 16/17/61 23/28/62 17/18/63
g default
v -3.371096 7.263336 -3.009097
v -3.226943 6.356520 -2.711195
v -2.986680 6.868217 -2.993314
v -2.377305 6.631459 -3.840326
v -2.640272 6.123124 -3.064383
v -2.175468 5.751374 -3.374424
v -2.956176 6.527485 -3.995165
v -3.295850 6.796470 -3.382062
v -2.685817 7.076526 -3.583752
v -3.259671 6.042739 -3.973004
v -3.563128 5.556968 -3.951181
v -3.581839 6.165132 -3.614671
v -2.958410 6.054426 -2.466422
v -3.647078 6.825605 -2.607962
v -3.761174 6.571311 -3.102760
v -4.230808 6.202679 -2.906219
v -2.563280 6.168798 -4.121336
v -2.751190 5.704277 -4.402820
v -2.769322 6.566188 -3.305811
v -4.336136 6.369146 -2.299142
v -3.500806 6.328890 -2.015958
v -3.986361 5.737826 -3.391887
v -2.352771 5.820031 -3.903713
v -3.229608 6.191658 -2.241190
v -4.439005 5.862732 -2.611011
vt 0.000000 0.000000
vt 0.000000 0.000000
vt 0.000000 0.000000
vt 0.000000 0.000000
vt 0.000000 0.000000
vt 0.000000 0.000000
vt 0.000000 0.000000
vt 0.000000 0.000000
vt 0.000000 0.000000
vt 0.000000 0.000000
vt 0.000000 0.000000
vt 0.000000 0.000000
vt 0.000000 0.000000
vt 0.000000 0.000000
vt 0.000000 0.000000
vt 0.000000 0.000000
vt 0.000000 0.000000
vt 0.000000 0.000000
vt 0.000000 0.000000
vt 0.000000 0.000000
vt 0.000000 0.000000
vt 0.000000 0.000000
vt 0.000000 0.000000
vt 0.000000 0.000000
vt 0.000000 0.000000
vn 0.314125 0.341006 0.886025
vn 0.314125 0.341006 0.886025
vn 0.314125 0.341006 0.886025
vn 0.715680 0.447851 0.535940
vn 0.715680 0.447851 0.535940
vn 0.715680 0.447851 0.535940
vn -0.491226 0.664168 -0.563540
vn -0.491226 0.664168 -0.563540
vn -0.491226 0.664168 -0.563540
vn -0.628498 0.361683 -0.688604
vn -0.628498 0.361683 -0.688604
vn -0.628498 0.361683 -0.688604
vn -0.628376 0.361939 -0.688580
vn -0.628376 0.361939 -0.688580
vn -0.628376 0.361939 -0.688580
vn -0.470628 0.503168 -0.724798
vn -0.470628 0.503168 -0.724798
vn -0.470628 0.503168 -0.724798
vn 0.526507 0.766321 0.368162
vn 0.526507 0.766321 0.368162
vn 0.526507 0.766321 0.368162
vn -0.657508 0.720947 -0.218903
vn -0.657508 0.720947 -0.218903
vn -0.657508 0.720947 -0.218903
vn 0.147657 0.468190 -0.871203
vn 0.147657 0.468190 -0.871203
vn 0.147657 0.468190 -0.871203
vn 0.778997 0.196776 0.595350
vn 0.778997 0.196776 0.595350
vn 0.778997 0.196776 0.595350
vn -0.617263 0.724869 -0.305862
vn -0.617263 0.724869 -0.305862
vn -0.617263 0.724869 -0.305862
vn 0.562238 0.337408 0.755013
vn 0.562238 0.337408 0.755013
vn 0.562238 0.337408 0.755013
vn -0.610567 0.502202 -0.612374
vn -0.610567 0.502202 -0.612374
vn -0.610567 0.502202 -0.612374
vn -0.632626 0.483328 -0.605126
vn -0.632626 0.483328 -0.605126
vn -0.632626 0.483328 -0.605126
vn 0.601581 0.606069 0.520366
vn 0.601581 0.606069 0.520366
vn 0.601581 0.606069 0.520366
vn -0.504941 0.278792 -0.816890
vn -0.504941 0.278792 -0.816890
vn -0.504941 0.278792 -0.816890
vn 0.866234 0.122121 0.484484
vn 0.866234 0.122121 0.484484
vn 0.866234 0.122121 0.484484
vn 0.740353 0.593722 0.315232
vn 0.740353 0.593722 0.315232
vn 0.740353 0.593722 0.315232
vn 0.670182 0.496039 0.552089
vn 0.670182 0.496039 0.552089
vn 0.670182 0.496039 0.552089
vn -0.548649 0.788267 -0.278603
vn -0.548649 0.788267 -0.278603
vn -0.548649 0.788267 -0.278603
vn -0.642746 0.503791 -0.577124
vn -0.642746 0.503791 -0.577124
vn -0.642746 0.503791 -0.577124
vn -0.691317 0.315568 -0.649998
vn -0.691317 0.315568 -0.649998
vn -0.691317 0.315568 -0.649998
vn 0.772505 0.072637 -0.630840
vn 0.772505 0.072637 -0.630840
vn 0.772505 0.072637 -0.630840
vn 0.119823 0.556878 -0.821906
vn 0.119823 0.556878 -0.821906
vn 0.119823 0.556878 -0.821906
vn -0.187982 0.729046 0.658145
vn -0.187982 0.729046 0.658145
vn -0.187982 0.729046 0.658145
vn 0.559471 0.183003 0.808395
vn 0.559471 0.183003 0.808395
vn 0.559471 0.183003 0.808395
vn 0.888645 0.390159 0.241009
vn 0.888645 0.390159 0.241009
vn 0.888645 0.390159 0.241009
vn 0.602486 0.752068 0.267215
vn 0.602486 0.752068 0.267215
vn 0.602486 0.752068 0.267215
vn 0.148623 0.469032 -0.870586
vn 0.148623 0.469032 -0.870586
vn 0.148623 0.469032 -0.870586
vn -0.907162 0.338337 -0.250170
vn -0.907162 0.338337 -0.250170
vn -0.907162 0.338337 -0.250170
vn -0.892258 0.185175 -0.411809
vn -0.892258 0.185175 -0.411809
vn -0.892258 0.185175 -0.411809
vn 0.771449 0.071085 -0.632308
vn 0.771449 0.071085 -0.632308
vn 0.771449 0.071085 -0.632308
vn -0.504968 0.278750 -0.816888
vn -0.504968 0.278750 -0.816888
vn -0.504968 0.278750 -0.816888
vn 0.948931 0.052986 -0.311003
vn 0.948931 0.052986 -0.311003
vn 0.948931 0.052986 -0.311003
s off
g mountains island_obj polySurface4
usemtl IslaSG1
f 24/29/64 25/30/65 26/31/66
f 27/32/67 28/33/68 29/34/69
f 30/35/70 31/36/71 32/37/72
f 33/38/73 34/39/74 35/40/75
f 30/35/76 33/38/77 35/40/78
f 31/36/79 24/29/80 32/37/81
f 25/30/82 36/41/83 28/33/84
f 37/42/85 38/43/86 39/44/87
f 40/45/88 41/46/89 30/35/90
f 32/37/91 42/47/92 27/32/93
f 37/42/94 39/44/95 43/48/96
f 37/42/97 25/30/98 24/29/99
f 35/40/100 38/43/101 31/36/102
f 38/43/103 35/40/104 39/44/105
f 24/29/106 26/31/107 32/37/108
f 33/38/109 30/35/110 41/46/111
f 42/47/112 32/37/113 26/31/114
f 37/42/115 44/49/116 25/30/117
f 42/47/118 28/33/119 27/32/120
f 38/43/121 37/42/122 31/36/123
f 31/36/124 30/35/125 35/40/126
f 35/40/127 45/50/128 39/44/129
f 40/45/130 27/32/131 46/51/132
f 27/32/133 30/35/134 32/37/135
f 43/48/136 44/49/137 37/42/138
f 25/30/139 28/33/140 26/31/141
f 28/33/142 42/47/143 26/31/144
f 44/49/145 47/52/146 25/30/147
f 27/32/148 40/45/149 30/35/150
f 48/53/151 43/48/152 39/44/153
f 37/42/154 24/29/155 31/36/156
f 41/46/157 40/45/158 46/51/159
f 34/39/160 33/38/161 41/46/162
f 27/32/163 29/34/164 46/51/165
g default
v -5.028314 5.201757 1.028704
v -5.448294 5.178488 0.954323
v -5.527868 5.052460 1.284134
v -4.941919 5.189528 0.427191
v -5.213845 5.354210 0.496986
v -5.522425 5.286092 0.701347
v -5.759165 4.642673 -0.049384
v -5.831004 5.217975 0.905707
v -5.053447 4.998615 1.455785
v -5.586887 4.767512 1.642520
v -5.939343 4.883835 1.302205
v -5.841297 4.449829 0.797641
vt 0.000000 0.000000
vt 0.000000 0.000000
vt 0.000000 0.000000
vt 0.000000 0.000000
vt 0.000000 0.000000
vt 0.000000 0.000000
vt 0.000000 0.000000
vt 0.000000 0.000000
vt 0.000000 0.000000
vt 0.000000 0.000000
vt 0.000000 0.000000
vt 0.000000 0.000000
vn -0.110601 0.936998 0.331363
vn -0.110601 0.936998 0.331363
vn -0.110601 0.936998 0.331363
vn 0.528097 0.847158 0.058626
vn 0.528097 0.847158 0.058626
vn 0.528097 0.847158 0.058626
vn -0.479517 0.735289 -0.478970
vn -0.479517 0.735289 -0.478970
vn -0.479517 0.735289 -0.478970
vn 0.047172 0.924093 0.379245
vn 0.047172 0.924093 0.379245
vn 0.047172 0.924093 0.379245
vn 0.047171 0.924094 0.379244
vn 0.047171 0.924094 0.379244
vn 0.047171 0.924094 0.379244
vn -0.051815 0.903015 0.426473
vn -0.051815 0.903015 0.426473
vn -0.051815 0.903015 0.426473
vn -0.129275 0.786434 0.603994
vn -0.129275 0.786434 0.603994
vn -0.129275 0.786434 0.603994
vn 0.049245 0.928971 0.366861
vn 0.049245 0.928971 0.366861
vn 0.049245 0.928971 0.366861
vn -0.106983 0.945240 0.308346
vn -0.106983 0.945240 0.308346
vn -0.106983 0.945240 0.308346
vn -0.479515 0.735289 -0.478973
vn -0.479515 0.735289 -0.478973
vn -0.479515 0.735289 -0.478973
vn -0.290297 0.769362 0.569043
vn -0.290297 0.769362 0.569043
vn -0.290297 0.769362 0.569043
vn -0.995546 0.026086 -0.090596
vn -0.995546 0.026086 -0.090596
vn -0.995546 0.026086 -0.090596
vn -0.972669 0.045079 -0.227779
vn -0.972669 0.045079 -0.227779
vn -0.972669 0.045079 -0.227779
s off
g mountains island_obj polySurface5
usemtl IslaSG1
f 49/54/166 50/55/167 51/56/168
f 52/57/169 53/58/170 49/54/171
f 54/59/172 53/58/173 55/60/174
f 54/59/175 56/61/176 50/55/177
f 53/58/178 54/59/179 50/55/180
f 51/56/181 57/62/182 49/54/183
f 57/62/184 51/56/185 58/63/186
f 50/55/187 56/61/188 51/56/189
f 50/55/190 49/54/191 53/58/192
f 56/61/193 54/59/194 55/60/195
f 51/56/196 56/61/197 59/64/198
f 60/65/199 56/61/200 55/60/201
f 59/64/202 56/61/203 60/65/204
g default
v 3.307300 4.773306 -3.760174
v 3.747971 5.153125 -3.853587
v 3.646725 4.932827 -4.100074
v 3.385912 4.666992 -4.122659
v 4.403171 5.198321 -3.449438
v 3.999425 5.284032 -3.550672
v 4.207989 5.277913 -3.159184
v 3.837286 4.546655 -4.417745
v 4.172521 4.255356 -4.585750
v 3.618503 4.194109 -4.863518
v 4.811184 5.097136 -2.546127
v 4.385254 5.140757 -2.637952
v 4.231790 4.838026 -2.465821
v 4.544120 5.154114 -3.080623
v 3.518762 4.877514 -3.053916
v 3.710570 4.818223 -2.725265
v 3.746159 5.111302 -2.977684
v 4.306206 4.669201 -4.162246
v 4.074026 5.154228 -3.859392
v 4.456240 5.134693 -3.797510
v 4.074790 3.753006 -4.981467
v 4.584334 4.009811 -4.402894
v 3.610836 5.108735 -3.294396
v 4.030705 5.133724 -2.729249
v 3.466271 4.557958 -4.486579
v 4.946845 4.912818 -3.273113
v 4.658074 4.945944 -3.648905
v 3.386749 4.903857 -3.434577
v 5.051019 4.421648 -3.593907
v 4.806184 4.349946 -4.009188
vt 0.000000 0.000000
vt 0.000000 0.000000
vt 0.000000 0.000000
vt 0.000000 0.000000
vt 0.000000 0.000000
vt 0.000000 0.000000
vt 0.000000 0.000000
vt 0.000000 0.000000
vt 0.000000 0.000000
vt 0.000000 0.000000
vt 0.000000 0.000000
vt 0.000000 0.000000
vt 0.000000 0.000000
vt 0.000000 0.000000
vt 0.000000 0.000000
vt 0.000000 0.000000
vt 0.000000 0.000000
vt 0.000000 0.000000
vt 0.000000 0.000000
vt 0.000000 0.000000
vt 0.000000 0.000000
vt 0.000000 0.000000
vt 0.000000 0.000000
vt 0.000000 0.000000
vt 0.000000 0.000000
vt 0.000000 0.000000
vt 0.000000 0.000000
vt 0.000000 0.000000
vt 0.000000 0.000000
vt 0.000000 0.000000
vn -0.654756 0.676993 -0.336117
vn -0.654756 0.676993 -0.336117
vn -0.654756 0.676993 -0.336117
vn -0.656730 0.673197 -0.339869
vn -0.656730 0.673197 -0.339869
vn -0.656730 0.673197 -0.339869
vn 0.232443 0.966514 -0.108727
vn 0.232443 0.966514 -0.108727
vn 0.232443 0.966514 -0.108727
vn 0.261840 0.690320 -0.674461
vn 0.261840 0.690320 -0.674461
vn 0.261840 0.690320 -0.674461
vn -0.124759 0.537456 0.834012
vn -0.124759 0.537456 0.834012
vn -0.124759 0.537456 0.834012
vn 0.088503 0.994160 0.061758
vn 0.088503 0.994160 0.061758
vn 0.088503 0.994160 0.061758
vn -0.696744 0.514815 0.499513
vn -0.696744 0.514815 0.499513
vn -0.696744 0.514815 0.499513
vn 0.159212 0.576595 -0.801367
vn 0.159212 0.576595 -0.801367
vn 0.159212 0.576595 -0.801367
vn 0.326965 0.544720 -0.772252
vn 0.326965 0.544720 -0.772252
vn 0.326965 0.544720 -0.772252
vn 0.579624 0.483795 -0.655727
vn 0.579624 0.483795 -0.655727
vn 0.579624 0.483795 -0.655727
vn 0.217087 0.663025 -0.716430
vn 0.217087 0.663025 -0.716430
vn 0.217087 0.663025 -0.716430
vn -0.014336 0.748446 -0.663041
vn -0.014336 0.748446 -0.663041
vn -0.014336 0.748446 -0.663041
vn -0.429326 0.902523 -0.033642
vn -0.429326 0.902523 -0.033642
vn -0.429326 0.902523 -0.033642
vn -0.010052 0.920914 -0.389636
vn -0.010052 0.920914 -0.389636
vn -0.010052 0.920914 -0.389636
vn 0.238927 0.961002 -0.139243
vn 0.238927 0.961002 -0.139243
vn 0.238927 0.961002 -0.139243
vn -0.025259 0.999458 0.021092
vn -0.025259 0.999458 0.021092
vn -0.025259 0.999458 0.021092
vn 0.144343 0.740444 -0.656436
vn 0.144343 0.740444 -0.656436
vn 0.144343 0.740444 -0.656436
vn -0.562129 0.577858 0.591685
vn -0.562129 0.577858 0.591685
vn -0.562129 0.577858 0.591685
vn 0.520610 0.787165 -0.330663
vn 0.520610 0.787165 -0.330663
vn 0.520610 0.787165 -0.330663
vn -0.415110 0.431320 0.801029
vn -0.415110 0.431320 0.801029
vn -0.415110 0.431320 0.801029
vn -0.638312 0.763780 -0.095908
vn -0.638312 0.763780 -0.095908
vn -0.638312 0.763780 -0.095908
vn 0.692969 0.720497 -0.026053
vn 0.692969 0.720497 -0.026053
vn 0.692969 0.720497 -0.026053
vn 0.154286 0.575380 -0.803202
vn 0.154286 0.575380 -0.803202
vn 0.154286 0.575380 -0.803202
vn -0.654891 0.671906 -0.345919
vn -0.654891 0.671906 -0.345919
vn -0.654891 0.671906 -0.345919
vn -0.738929 0.604262 0.298079
vn -0.738929 0.604262 0.298079
vn -0.738929 0.604262 0.298079
vn -0.216520 0.563188 0.797458
vn -0.216520 0.563188 0.797458
vn -0.216520 0.563188 0.797458
vn 0.714588 0.482423 -0.506589
vn 0.714588 0.482423 -0.506589
vn 0.714588 0.482423 -0.506589
vn 0.721107 0.268134 -0.638834
vn 0.721107 0.268134 -0.638834
vn 0.721107 0.268134 -0.638834
vn -0.257699 0.943120 0.210037
vn -0.257699 0.943120 0.210037
vn -0.257699 0.943120 0.210037
vn 0.154818 0.672072 -0.724120
vn 0.154818 0.672072 -0.724120
vn 0.154818 0.672072 -0.724120
vn 0.205590 0.680228 -0.703579
vn 0.205590 0.680228 -0.703579
vn 0.205590 0.680228 -0.703579
vn -0.663113 0.736517 -0.133508
vn -0.663113 0.736517 -0.133508
vn -0.663113 0.736517 -0.133508
vn -0.277628 0.946810 0.162706
vn -0.277628 0.946810 0.162706
vn -0.277628 0.946810 0.162706
vn -0.730305 0.610204 0.307092
vn -0.730305 0.610204 0.307092
vn -0.730305 0.610204 0.307092
vn 0.521552 0.477937 -0.706796
vn 0.521552 0.477937 -0.706796
vn 0.521552 0.477937 -0.706796
vn 0.483740 0.871510 -0.080410
vn 0.483740 0.871510 -0.080410
vn 0.483740 0.871510 -0.080410
vn 0.538813 0.529823 -0.654957
vn 0.538813 0.529823 -0.654957
vn 0.538813 0.529823 -0.654957
vn -0.332430 0.933492 0.134470
vn -0.332430 0.933492 0.134470
vn -0.332430 0.933492 0.134470
vn 0.715227 0.483061 -0.505077
vn 0.715227 0.483061 -0.505077
vn 0.715227 0.483061 -0.505077
vn 0.234888 0.888255 0.394754
vn 0.234888 0.888255 0.394754
vn 0.234888 0.888255 0.394754
vn 0.349953 0.936521 -0.021485
vn 0.349953 0.936521 -0.021485
vn 0.349953 0.936521 -0.021485
vn 0.106156 0.925528 -0.363495
vn 0.106156 0.925528 -0.363495
vn 0.106156 0.925528 -0.363495
s off
g mountains island_obj polySurface6
usemtl IslaSG1
f 61/66/205 62/67/206 63/68/207
f 64/69/208 61/66/209 63/68/210
f 65/70/211 66/71/212 67/72/213
f 68/73/214 69/74/215 70/75/216
f 71/76/217 72/77/218 73/78/219
f 72/77/220 71/76/221 74/79/222
f 75/80/223 76/81/224 77/82/225
f 78/83/226 79/84/227 80/85/228
f 70/75/229 69/74/230 81/86/231
f 82/87/232 69/74/233 78/83/234
f 69/74/235 68/73/236 78/83/237
f 63/68/238 62/67/239 79/84/240
f 66/71/241 62/67/242 83/88/243
f 62/67/244 66/71/245 79/84/246
f 65/70/247 80/85/248 66/71/249
f 84/89/250 72/77/251 74/79/252
f 68/73/253 70/75/254 85/90/255
f 84/89/256 77/82/257 76/81/258
f 86/91/259 87/92/260 65/70/261
f 73/78/262 84/89/263 76/81/264
f 62/67/265 88/93/266 83/88/267
f 87/92/268 80/85/269 65/70/270
f 63/68/271 79/84/272 78/83/273
f 85/90/274 64/69/275 63/68/276
f 75/80/277 83/88/278 88/93/279
f 72/77/280 84/89/281 73/78/282
f 87/92/283 86/91/284 89/94/285
f 87/92/286 78/83/287 80/85/288
f 84/89/289 67/72/290 77/82/291
f 68/73/292 85/90/293 63/68/294
f 68/73/295 63/68/296 78/83/297
f 61/66/298 88/93/299 62/67/300
f 66/71/301 77/82/302 67/72/303
f 75/80/304 77/82/305 83/88/306
f 82/87/307 78/83/308 90/95/309
f 65/70/310 74/79/311 86/91/312
f 87/92/313 90/95/314 78/83/315
f 66/71/316 83/88/317 77/82/318
f 87/92/319 89/94/320 90/95/321
f 74/79/322 67/72/323 84/89/324
f 65/70/325 67/72/326 74/79/327
f 79/84/328 66/71/329 80/85/330
g default
v 5.242940 4.963696 0.423409
v 5.713018 4.956940 0.381258
v 5.624230 5.176083 0.041190
v 6.042240 4.889121 0.117325
v 6.027446 4.762512 -0.279777
v 5.171476 5.110622 -0.000531
v 5.369998 5.226487 -0.345635
v 5.767581 5.110255 -0.305858
v 5.723425 4.849966 -0.685455
v 4.970836 4.880319 0.123511
vt 0.000000 0.000000
vt 0.000000 0.000000
vt 0.000000 0.000000
vt 0.000000 0.000000
vt 0.000000 0.000000
vt 0.000000 0.000000
vt 0.000000 0.000000
vt 0.000000 0.000000
vt 0.000000 0.000000
vt 0.000000 0.000000
vn 0.059654 0.846107 0.529664
vn 0.059654 0.846107 0.529664
vn 0.059654 0.846107 0.529664
vn 0.577988 0.771007 -0.267355
vn 0.577988 0.771007 -0.267355
vn 0.577988 0.771007 -0.267355
vn 0.473050 0.791663 0.386645
vn 0.473050 0.791663 0.386645
vn 0.473050 0.791663 0.386645
vn -0.160000 0.959892 0.230234
vn -0.160000 0.959892 0.230234
vn -0.160000 0.959892 0.230234
vn 0.735012 0.516304 -0.439530
vn 0.735012 0.516304 -0.439530
vn 0.735012 0.516304 -0.439530
vn 0.776061 0.595510 0.207600
vn 0.776061 0.595510 0.207600
vn 0.776061 0.595510 0.207600
vn 0.283139 0.775307 -0.564563
vn 0.283139 0.775307 -0.564563
vn 0.283139 0.775307 -0.564563
vn 0.285864 0.956178 -0.063288
vn 0.285864 0.956178 -0.063288
vn 0.285864 0.956178 -0.063288
vn -0.604829 0.715376 0.349886
vn -0.604829 0.715376 0.349886
vn -0.604829 0.715376 0.349886
vn -0.165476 0.922874 0.347736
vn -0.165476 0.922874 0.347736
vn -0.165476 0.922874 0.347736
s off
g mountains island_obj polySurface7
usemtl IslaSG1
f 91/96/331 92/97/332 93/98/333
f 93/98/334 94/99/335 95/100/336
f 92/97/337 94/99/338 93/98/339
f 96/101/340 93/98/341 97/102/342
f 98/103/343 95/100/344 99/104/345
f 95/100/346 98/103/347 93/98/348
f 97/102/349 98/103/350 99/104/351
f 98/103/352 97/102/353 93/98/354
f 96/101/355 100/105/356 91/96/357
f 93/98/358 96/101/359 91/96/360
