# This file uses centimeters as units for non-parametric coordinates.

mtllib island_cloud_4.mtl
g default
v 4.567416 7.523629 6.221485
v 5.957465 7.436710 5.962631
v 5.441732 6.543289 6.692239
v 4.656339 6.958571 6.718675
v 5.765656 6.629634 6.166638
v 5.573594 6.807980 5.751108
v 5.691612 6.880069 5.697791
v 5.429272 7.190152 5.791016
v 5.715996 7.057609 6.546967
v 4.681571 6.813775 6.245267
v 5.815036 7.367220 5.871580
v 5.445300 7.551274 6.180766
v 4.339989 7.610751 6.713768
v 6.029897 6.819601 6.256284
v 5.942447 7.094080 6.384266
v 5.404345 6.793840 6.851452
v 4.472700 7.149864 6.761947
v 4.541419 7.660840 6.458805
v 4.795086 6.706373 6.437138
v 4.775343 7.046412 5.973840
v 5.076209 6.578450 6.882074
v 4.226439 7.502130 6.236193
v 4.904345 6.824984 6.976594
v 5.128329 7.065929 6.804071
v 4.950822 6.553847 6.762464
v 4.201171 7.225383 6.760584
v 5.067436 7.442616 6.214753
v 4.237775 7.681286 6.455183
v 5.158308 6.553667 6.276260
v 4.073334 7.504125 6.667626
v 4.162714 7.048167 6.398758
v 5.468929 7.257595 6.468069
v 5.864785 7.491389 6.305574
v 4.862372 7.017577 6.913551
v 4.058086 7.333976 6.307767
v 5.050634 6.910425 5.835629
v 4.319811 7.068581 6.092888
v 4.553223 7.219349 6.029070
v 4.408398 7.363246 6.851223
v 5.103787 7.064386 5.836056
v 5.431132 6.455960 6.164478
v 5.378480 6.603409 6.014618
v 6.060319 7.235497 6.101389
vt 0.000000 0.000000
vt 0.000000 0.000000
vt 0.000000 0.000000
vt 0.000000 0.000000
vt 0.000000 0.000000
vt 0.000000 0.000000
vt 0.000000 0.000000
vt 0.000000 0.000000
vt 0.000000 0.000000
vt 0.000000 0.000000
vt 0.000000 0.000000
vt 0.000000 0.000000
vt 0.000000 0.000000
vt 0.000000 0.000000
vt 0.000000 0.000000
vt 0.000000 0.000000
vt 0.000000 0.000000
vt 0.000000 0.000000
vt 0.000000 0.000000
vt 0.000000 0.000000
vt 0.000000 0.000000
vt 0.000000 0.000000
vt 0.000000 0.000000
vt 0.000000 0.000000
vt 0.000000 0.000000
vt 0.000000 0.000000
vt 0.000000 0.000000
vt 0.000000 0.000000
vt 0.000000 0.000000
vt 0.000000 0.000000
vt 0.000000 0.000000
vt 0.000000 0.000000
vt 0.000000 0.000000
vt 0.000000 0.000000
vt 0.000000 0.000000
vt 0.000000 0.000000
vt 0.000000 0.000000
vt 0.000000 0.000000
vt 0.000000 0.000000
vt 0.000000 0.000000
vt 0.000000 0.000000
vt 0.000000 0.000000
vt 0.000000 0.000000
vn -0.241724 -0.861040 0.447415
vn -0.241724 -0.861040 0.447415
vn -0.241724 -0.861040 0.447415
vn 0.255558 0.486296 0.835587
vn 0.255558 0.486296 0.835587
vn 0.255558 0.486296 0.835587
vn -0.907879 -0.330250 0.258244
vn -0.907879 -0.330250 0.258244
vn -0.907879 -0.330250 0.258244
vn 0.528300 0.580677 0.619446
vn 0.528300 0.580677 0.619446
vn 0.528300 0.580677 0.619446
vn 0.838045 0.526661 0.142510
vn 0.838045 0.526661 0.142510
vn 0.838045 0.526661 0.142510
vn 0.814935 -0.253681 -0.521082
vn 0.814935 -0.253681 -0.521082
vn 0.814935 -0.253681 -0.521082
vn -0.193780 0.723588 -0.662472
vn -0.193780 0.723588 -0.662472
vn -0.193780 0.723588 -0.662472
vn -0.741236 -0.489659 0.459134
vn -0.741236 -0.489659 0.459134
vn -0.741236 -0.489659 0.459134
vn -0.133506 0.687534 0.713774
vn -0.133506 0.687534 0.713774
vn -0.133506 0.687534 0.713774
vn -0.383929 0.214198 -0.898175
vn -0.383929 0.214198 -0.898175
vn -0.383929 0.214198 -0.898175
vn -0.697076 0.081271 0.712377
vn -0.697076 0.081271 0.712377
vn -0.697076 0.081271 0.712377
vn -0.829206 0.518066 -0.209820
vn -0.829206 0.518066 -0.209820
vn -0.829206 0.518066 -0.209820
vn -0.941143 -0.288420 0.176248
vn -0.941143 -0.288420 0.176248
vn -0.941143 -0.288420 0.176248
vn -0.255682 0.671643 -0.695358
vn -0.255682 0.671643 -0.695358
vn -0.255682 0.671643 -0.695358
vn -0.794159 -0.591683 0.138642
vn -0.794159 -0.591683 0.138642
vn -0.794159 -0.591683 0.138642
vn -0.070068 0.535485 -0.841633
vn -0.070068 0.535485 -0.841633
vn -0.070068 0.535485 -0.841633
vn -0.307875 0.395480 0.865337
vn -0.307875 0.395480 0.865337
vn -0.307875 0.395480 0.865337
vn -0.573905 -0.513223 -0.638149
vn -0.573905 -0.513223 -0.638149
vn -0.573905 -0.513223 -0.638149
vn -0.371361 -0.186490 -0.909567
vn -0.371361 -0.186490 -0.909567
vn -0.371361 -0.186490 -0.909567
vn 0.064272 0.866962 -0.494213
vn 0.064272 0.866962 -0.494213
vn 0.064272 0.866962 -0.494213
vn 0.299895 0.355181 0.885387
vn 0.299895 0.355181 0.885387
vn 0.299895 0.355181 0.885387
vn 0.105421 0.708642 -0.697649
vn 0.105421 0.708642 -0.697649
vn 0.105421 0.708642 -0.697649
vn -0.244528 -0.669845 -0.701080
vn -0.244528 -0.669845 -0.701080
vn -0.244528 -0.669845 -0.701080
vn -0.138772 -0.729859 -0.669364
vn -0.138772 -0.729859 -0.669364
vn -0.138772 -0.729859 -0.669364
vn -0.399331 0.832130 0.384830
vn -0.399331 0.832130 0.384830
vn -0.399331 0.832130 0.384830
vn -0.075914 0.773676 -0.629018
vn -0.075914 0.773676 -0.629018
vn -0.075914 0.773676 -0.629018
vn -0.725498 0.550607 -0.412898
vn -0.725498 0.550607 -0.412898
vn -0.725498 0.550607 -0.412898
vn -0.186685 0.134633 -0.973151
vn -0.186685 0.134633 -0.973151
vn -0.186685 0.134633 -0.973151
vn -0.464400 -0.835309 -0.294266
vn -0.464400 -0.835309 -0.294266
vn -0.464400 -0.835309 -0.294266
vn -0.809020 -0.575970 0.117243
vn -0.809020 -0.575970 0.117243
vn -0.809020 -0.575970 0.117243
vn -0.791816 -0.428442 -0.435275
vn -0.791816 -0.428442 -0.435275
vn -0.791816 -0.428442 -0.435275
vn 0.599988 -0.223107 -0.768270
vn 0.599988 -0.223107 -0.768270
vn 0.599988 -0.223107 -0.768270
vn -0.050521 0.830463 -0.554779
vn -0.050521 0.830463 -0.554779
vn -0.050521 0.830463 -0.554779
vn -0.213353 -0.330646 -0.919322
vn -0.213353 -0.330646 -0.919322
vn -0.213353 -0.330646 -0.919322
vn -0.392399 -0.904485 -0.167121
vn -0.392399 -0.904485 -0.167121
vn -0.392399 -0.904485 -0.167121
vn -0.253577 -0.016812 -0.967169
vn -0.253577 -0.016812 -0.967169
vn -0.253577 -0.016812 -0.967169
vn -0.451507 -0.871286 -0.192357
vn -0.451507 -0.871286 -0.192357
vn -0.451507 -0.871286 -0.192357
vn 0.172333 0.978933 -0.109509
vn 0.172333 0.978933 -0.109509
vn 0.172333 0.978933 -0.109509
vn -0.458778 -0.590592 0.663870
vn -0.458778 -0.590592 0.663870
vn -0.458778 -0.590592 0.663870
vn -0.211264 -0.704881 -0.677134
vn -0.211264 -0.704881 -0.677134
vn -0.211264 -0.704881 -0.677134
vn -0.142009 0.533772 -0.833619
vn -0.142009 0.533772 -0.833619
vn -0.142009 0.533772 -0.833619
vn -0.119577 -0.413647 0.902551
vn -0.119577 -0.413647 0.902551
vn -0.119577 -0.413647 0.902551
vn -0.689448 -0.702123 0.178002
vn -0.689448 -0.702123 0.178002
vn -0.689448 -0.702123 0.178002
vn -0.494029 -0.589441 0.639136
vn -0.494029 -0.589441 0.639136
vn -0.494029 -0.589441 0.639136
vn 0.838832 0.258825 0.478926
vn 0.838832 0.258825 0.478926
vn 0.838832 0.258825 0.478926
vn -0.452947 -0.456815 0.765611
vn -0.452947 -0.456815 0.765611
vn -0.452947 -0.456815 0.765611
vn 0.133492 0.864235 -0.485054
vn 0.133492 0.864235 -0.485054
vn 0.133492 0.864235 -0.485054
vn -0.389562 0.137018 -0.910751
vn -0.389562 0.137018 -0.910751
vn -0.389562 0.137018 -0.910751
vn -0.428277 -0.750643 -0.503104
vn -0.428277 -0.750643 -0.503104
vn -0.428277 -0.750643 -0.503104
vn 0.062380 0.968860 0.239621
vn 0.062380 0.968860 0.239621
vn 0.062380 0.968860 0.239621
vn -0.354646 0.693079 -0.627589
vn -0.354646 0.693079 -0.627589
vn -0.354646 0.693079 -0.627589
vn -0.206315 0.073934 -0.975689
vn -0.206315 0.073934 -0.975689
vn -0.206315 0.073934 -0.975689
vn -0.449024 0.090515 0.888923
vn -0.449024 0.090515 0.888923
vn -0.449024 0.090515 0.888923
vn 0.702790 0.074340 -0.707503
vn 0.702790 0.074340 -0.707503
vn 0.702790 0.074340 -0.707503
vn 0.353739 0.496846 0.792473
vn 0.353739 0.496846 0.792473
vn 0.353739 0.496846 0.792473
vn 0.902280 0.090962 0.421445
vn 0.902280 0.090962 0.421445
vn 0.902280 0.090962 0.421445
vn 0.626062 -0.116055 0.771089
vn 0.626062 -0.116055 0.771089
vn 0.626062 -0.116055 0.771089
vn 0.529579 -0.826573 0.190587
vn 0.529579 -0.826573 0.190587
vn 0.529579 -0.826573 0.190587
vn -0.469912 -0.706134 -0.529677
vn -0.469912 -0.706134 -0.529677
vn -0.469912 -0.706134 -0.529677
vn 0.617419 -0.649171 -0.444264
vn 0.617419 -0.649171 -0.444264
vn 0.617419 -0.649171 -0.444264
vn 0.362279 0.801881 0.475122
vn 0.362279 0.801881 0.475122
vn 0.362279 0.801881 0.475122
vn 0.310533 0.655300 0.688586
vn 0.310533 0.655300 0.688586
vn 0.310533 0.655300 0.688586
vn -0.251723 -0.854623 0.454152
vn -0.251723 -0.854623 0.454152
vn -0.251723 -0.854623 0.454152
vn 0.398643 -0.761493 -0.511090
vn 0.398643 -0.761493 -0.511090
vn 0.398643 -0.761493 -0.511090
vn 0.592923 -0.177346 0.785488
vn 0.592923 -0.177346 0.785488
vn 0.592923 -0.177346 0.785488
vn 0.455771 -0.879585 0.136392
vn 0.455771 -0.879585 0.136392
vn 0.455771 -0.879585 0.136392
vn 0.776782 -0.251094 0.577547
vn 0.776782 -0.251094 0.577547
vn 0.776782 -0.251094 0.577547
vn -0.381591 -0.761778 -0.523529
vn -0.381591 -0.761778 -0.523529
vn -0.381591 -0.761778 -0.523529
vn 0.627136 0.503422 0.594362
vn 0.627136 0.503422 0.594362
vn 0.627136 0.503422 0.594362
vn 0.051946 0.843870 0.534027
vn 0.051946 0.843870 0.534027
vn 0.051946 0.843870 0.534027
vn 0.245759 0.402838 0.881660
vn 0.245759 0.402838 0.881660
vn 0.245759 0.402838 0.881660
vn 0.284923 -0.826067 -0.486243
vn 0.284923 -0.826067 -0.486243
vn 0.284923 -0.826067 -0.486243
vn -0.457283 -0.863485 -0.212805
vn -0.457283 -0.863485 -0.212805
vn -0.457283 -0.863485 -0.212805
vn 0.002129 -0.986589 0.163209
vn 0.002129 -0.986589 0.163209
vn 0.002129 -0.986589 0.163209
vn 0.090618 0.460352 0.883099
vn 0.090618 0.460352 0.883099
vn 0.090618 0.460352 0.883099
vn -0.114143 0.690026 0.714728
vn -0.114143 0.690026 0.714728
vn -0.114143 0.690026 0.714728
vn 0.375043 -0.456669 0.806719
vn 0.375043 -0.456669 0.806719
vn 0.375043 -0.456669 0.806719
vn 0.534516 0.263531 0.803022
vn 0.534516 0.263531 0.803022
vn 0.534516 0.263531 0.803022
vn 0.006754 -0.980845 0.194674
vn 0.006754 -0.980845 0.194674
vn 0.006754 -0.980845 0.194674
vn 0.225286 -0.207887 0.951856
vn 0.225286 -0.207887 0.951856
vn 0.225286 -0.207887 0.951856
vn -0.520695 0.164751 -0.837695
vn -0.520695 0.164751 -0.837695
vn -0.520695 0.164751 -0.837695
vn 0.048198 0.324759 -0.944568
vn 0.048198 0.324759 -0.944568
vn 0.048198 0.324759 -0.944568
s off
g cloud4 clouds island_obj
usemtl pasted__IcosphereSG3
f 17/41/1 26/22/2 31/5/3
f 39/29/4 34/4/5 24/3/6
f 30/18/7 31/5/8 26/22/9
f 18/31/10 39/29/11 27/9/12
f 2/15/13 33/14/14 43/25/15
f 43/25/16 14/2/17 7/40/18
f 8/30/19 12/26/20 11/36/21
f 25/33/22 23/13/23 4/35/24
f 27/9/25 32/38/26 12/26/27
f 22/27/28 38/43/29 37/10/30
f 4/35/31 23/13/32 34/4/33
f 30/18/34 28/42/35 35/34/36
f 31/5/37 30/18/38 35/34/39
f 27/9/40 12/26/41 40/19/42
f 4/35/43 10/7/44 19/17/45
f 22/27/46 1/24/47 38/43/48
f 39/29/49 13/12/50 30/18/51
f 36/23/52 10/7/53 20/8/54
f 40/19/55 20/8/56 38/43/57
f 28/42/58 18/31/59 1/24/60
f 34/4/61 23/13/62 24/3/63
f 40/19/64 1/24/65 27/9/66
f 6/11/67 42/39/68 36/23/69
f 42/39/70 6/11/71 41/6/72
f 28/42/73 30/18/74 13/12/75
f 28/42/76 1/24/77 22/27/78
f 22/27/79 35/34/80 28/42/81
f 8/30/82 7/40/83 40/19/84
f 37/10/85 10/7/86 31/5/87
f 19/17/88 25/33/89 4/35/90
f 37/10/91 31/5/92 35/34/93
f 11/36/94 2/15/95 43/25/96
f 12/26/97 2/15/98 11/36/99
f 6/11/100 36/23/101 7/40/102
f 29/28/103 41/6/104 25/33/105
f 38/43/106 20/8/107 37/10/108
f 29/28/109 25/33/110 19/17/111
f 2/15/112 12/26/113 33/14/114
f 17/41/115 4/35/116 34/4/117
f 37/10/118 20/8/119 10/7/120
f 38/43/121 1/24/122 40/19/123
f 17/41/124 39/29/125 26/22/126
f 4/35/127 17/41/128 10/7/129
f 25/33/130 21/37/131 23/13/132
f 43/25/133 33/14/134 15/32/135
f 17/41/136 34/4/137 39/29/138
f 1/24/139 18/31/140 27/9/141
f 36/23/142 20/8/143 40/19/144
f 42/39/145 29/28/146 36/23/147
f 13/12/148 18/31/149 28/42/150
f 8/30/151 40/19/152 12/26/153
f 36/23/154 40/19/155 7/40/156
f 39/29/157 30/18/158 26/22/159
f 7/40/160 11/36/161 43/25/162
f 9/16/163 24/3/164 16/21/165
f 14/2/166 43/25/167 15/32/168
f 14/2/169 9/16/170 3/1/171
f 14/2/172 3/1/173 5/20/174
f 29/28/175 42/39/176 41/6/177
f 5/20/178 7/40/179 14/2/180
f 27/9/181 39/29/182 24/3/183
f 24/3/184 9/16/185 32/38/186
f 17/41/187 31/5/188 10/7/189
f 6/11/190 5/20/191 41/6/192
f 9/16/193 14/2/194 15/32/195
f 41/6/196 5/20/197 3/1/198
f 3/1/199 9/16/200 16/21/201
f 36/23/202 29/28/203 10/7/204
f 13/12/205 39/29/206 18/31/207
f 27/9/208 24/3/209 32/38/210
f 23/13/211 16/21/212 24/3/213
f 5/20/214 6/11/215 7/40/216
f 19/17/217 10/7/218 29/28/219
f 41/6/220 3/1/221 25/33/222
f 32/38/223 9/16/224 33/14/225
f 33/14/226 12/26/227 32/38/228
f 21/37/229 3/1/230 16/21/231
f 9/16/232 15/32/233 33/14/234
f 3/1/235 21/37/236 25/33/237
f 23/13/238 21/37/239 16/21/240
f 35/34/241 22/27/242 37/10/243
f 8/30/244 11/36/245 7/40/246
