# This file uses centimeters as units for non-parametric coordinates.

mtllib island_cloud_3.mtl
g default
v 7.179999 7.753000 -0.959784
v 7.994234 8.213587 -0.539407
v 8.092375 8.544120 -0.031719
v 8.027167 8.926401 -0.050184
v 8.826235 8.369590 -0.676718
v 7.055443 8.230647 -0.792616
v 7.167432 8.940412 -1.638188
v 7.812218 9.031386 -1.789448
v 7.572172 8.993641 -0.721137
v 7.457566 9.086310 -1.244296
v 8.387048 7.803444 -1.305032
v 7.793372 8.650710 -0.203891
v 8.529959 8.435286 -0.335733
v 8.370933 9.068365 -0.744302
v 7.327792 8.601076 -0.594979
v 8.922624 8.456401 -1.254735
v 6.762386 8.625363 -1.601297
v 8.756450 8.819044 -1.522336
v 7.136223 8.444627 -2.195142
v 7.126455 7.560429 -1.554010
v 6.956267 8.706429 -1.008456
v 6.705653 7.914689 -1.297841
v 7.647640 8.277379 -2.352650
v 8.377106 8.878138 0.086535
v 8.553680 8.201846 -1.704411
v 8.059294 7.972498 -2.048620
v 6.977007 7.762034 -1.981947
v 7.504263 7.415933 -1.080650
v 8.388082 7.880718 -0.863986
v 8.295489 8.675884 -2.047388
v 8.844456 8.825074 -0.535596
v 6.485602 8.240438 -1.948139
v 8.802295 8.011790 -1.122063
v 7.591428 7.480763 -1.913373
vt 0.000000 0.000000
vt 0.000000 0.000000
vt 0.000000 0.000000
vt 0.000000 0.000000
vt 0.000000 0.000000
vt 0.000000 0.000000
vt 0.000000 0.000000
vt 0.000000 0.000000
vt 0.000000 0.000000
vt 0.000000 0.000000
vt 0.000000 0.000000
vt 0.000000 0.000000
vt 0.000000 0.000000
vt 0.000000 0.000000
vt 0.000000 0.000000
vt 0.000000 0.000000
vt 0.000000 0.000000
vt 0.000000 0.000000
vt 0.000000 0.000000
vt 0.000000 0.000000
vt 0.000000 0.000000
vt 0.000000 0.000000
vt 0.000000 0.000000
vt 0.000000 0.000000
vt 0.000000 0.000000
vt 0.000000 0.000000
vt 0.000000 0.000000
vt 0.000000 0.000000
vt 0.000000 0.000000
vt 0.000000 0.000000
vt 0.000000 0.000000
vt 0.000000 0.000000
vt 0.000000 0.000000
vt 0.000000 0.000000
vn -0.549568 0.545476 0.632796
vn -0.549568 0.545476 0.632796
vn -0.549568 0.545476 0.632796
vn -0.713466 0.160678 0.682018
vn -0.713466 0.160678 0.682018
vn -0.713466 0.160678 0.682018
vn -0.057995 -0.385938 0.920700
vn -0.057995 -0.385938 0.920700
vn -0.057995 -0.385938 0.920700
vn -0.565438 0.816886 0.113915
vn -0.565438 0.816886 0.113915
vn -0.565438 0.816886 0.113915
vn -0.606317 0.790085 0.090250
vn -0.606317 0.790085 0.090250
vn -0.606317 0.790085 0.090250
vn -0.570449 0.550888 0.609189
vn -0.570449 0.550888 0.609189
vn -0.570449 0.550888 0.609189
vn -0.839920 0.069117 0.538292
vn -0.839920 0.069117 0.538292
vn -0.839920 0.069117 0.538292
vn -0.618501 -0.398341 0.677333
vn -0.618501 -0.398341 0.677333
vn -0.618501 -0.398341 0.677333
vn -0.504202 0.824608 0.256519
vn -0.504202 0.824608 0.256519
vn -0.504202 0.824608 0.256519
vn -0.510654 -0.045635 0.858574
vn -0.510654 -0.045635 0.858574
vn -0.510654 -0.045635 0.858574
vn -0.168769 -0.364516 0.915776
vn -0.168769 -0.364516 0.915776
vn -0.168769 -0.364516 0.915776
vn -0.762394 0.339328 0.551010
vn -0.762394 0.339328 0.551010
vn -0.762394 0.339328 0.551010
vn -0.047294 0.604369 -0.795300
vn -0.047294 0.604369 -0.795300
vn -0.047294 0.604369 -0.795300
vn -0.437306 -0.665348 0.605042
vn -0.437306 -0.665348 0.605042
vn -0.437306 -0.665348 0.605042
vn -0.496107 -0.811870 0.307806
vn -0.496107 -0.811870 0.307806
vn -0.496107 -0.811870 0.307806
vn 0.429831 -0.889533 0.154844
vn 0.429831 -0.889533 0.154844
vn 0.429831 -0.889533 0.154844
vn 0.749430 -0.302765 0.588802
vn 0.749430 -0.302765 0.588802
vn 0.749430 -0.302765 0.588802
vn -0.365941 -0.017477 0.930474
vn -0.365941 -0.017477 0.930474
vn -0.365941 -0.017477 0.930474
vn 0.047331 0.973760 0.222599
vn 0.047331 0.973760 0.222599
vn 0.047331 0.973760 0.222599
vn -0.939802 0.194883 0.280701
vn -0.939802 0.194883 0.280701
vn -0.939802 0.194883 0.280701
vn 0.367024 -0.572449 0.733209
vn 0.367024 -0.572449 0.733209
vn 0.367024 -0.572449 0.733209
vn 0.010871 0.596874 -0.802262
vn 0.010871 0.596874 -0.802262
vn 0.010871 0.596874 -0.802262
vn -0.087436 0.983582 0.157864
vn -0.087436 0.983582 0.157864
vn -0.087436 0.983582 0.157864
vn -0.635959 -0.715495 0.289176
vn -0.635959 -0.715495 0.289176
vn -0.635959 -0.715495 0.289176
vn -0.252052 0.729789 -0.635514
vn -0.252052 0.729789 -0.635514
vn -0.252052 0.729789 -0.635514
vn 0.395340 -0.918042 -0.030090
vn 0.395340 -0.918042 -0.030090
vn 0.395340 -0.918042 -0.030090
vn -0.696821 -0.707380 -0.118549
vn -0.696821 -0.707380 -0.118549
vn -0.696821 -0.707380 -0.118549
vn 0.711172 -0.233861 0.662981
vn 0.711172 -0.233861 0.662981
vn 0.711172 -0.233861 0.662981
vn -0.677459 -0.727838 -0.106304
vn -0.677459 -0.727838 -0.106304
vn -0.677459 -0.727838 -0.106304
vn -0.304472 -0.399658 0.864622
vn -0.304472 -0.399658 0.864622
vn -0.304472 -0.399658 0.864622
vn -0.348565 -0.204392 -0.914727
vn -0.348565 -0.204392 -0.914727
vn -0.348565 -0.204392 -0.914727
vn 0.551908 -0.694125 -0.462155
vn 0.551908 -0.694125 -0.462155
vn 0.551908 -0.694125 -0.462155
vn -0.538735 -0.654610 0.530331
vn -0.538735 -0.654610 0.530331
vn -0.538735 -0.654610 0.530331
vn 0.151054 -0.841520 0.518677
vn 0.151054 -0.841520 0.518677
vn 0.151054 -0.841520 0.518677
vn -0.872672 0.249021 0.420038
vn -0.872672 0.249021 0.420038
vn -0.872672 0.249021 0.420038
vn 0.011322 -0.691192 0.722583
vn 0.011322 -0.691192 0.722583
vn 0.011322 -0.691192 0.722583
vn 0.498407 -0.661398 0.560485
vn 0.498407 -0.661398 0.560485
vn 0.498407 -0.661398 0.560485
vn 0.386192 -0.908732 0.158310
vn 0.386192 -0.908732 0.158310
vn 0.386192 -0.908732 0.158310
vn 0.374628 0.904390 0.204284
vn 0.374628 0.904390 0.204284
vn 0.374628 0.904390 0.204284
vn 0.322468 0.802548 -0.501927
vn 0.322468 0.802548 -0.501927
vn 0.322468 0.802548 -0.501927
vn 0.757944 -0.057318 -0.649797
vn 0.757944 -0.057318 -0.649797
vn 0.757944 -0.057318 -0.649797
vn -0.283277 -0.225095 -0.932248
vn -0.283277 -0.225095 -0.932248
vn -0.283277 -0.225095 -0.932248
vn 0.502562 -0.167273 -0.848205
vn 0.502562 -0.167273 -0.848205
vn 0.502562 -0.167273 -0.848205
vn -0.186245 0.958083 -0.217690
vn -0.186245 0.958083 -0.217690
vn -0.186245 0.958083 -0.217690
vn 0.792815 -0.082321 -0.603877
vn 0.792815 -0.082321 -0.603877
vn 0.792815 -0.082321 -0.603877
vn -0.547090 0.640229 -0.539258
vn -0.547090 0.640229 -0.539258
vn -0.547090 0.640229 -0.539258
vn -0.426108 0.755208 -0.498090
vn -0.426108 0.755208 -0.498090
vn -0.426108 0.755208 -0.498090
vn 0.262650 0.949075 -0.173988
vn 0.262650 0.949075 -0.173988
vn 0.262650 0.949075 -0.173988
vn 0.621964 -0.207532 -0.755044
vn 0.621964 -0.207532 -0.755044
vn 0.621964 -0.207532 -0.755044
vn 0.984724 -0.086257 0.151255
vn 0.984724 -0.086257 0.151255
vn 0.984724 -0.086257 0.151255
vn 0.928078 0.362557 -0.084989
vn 0.928078 0.362557 -0.084989
vn 0.928078 0.362557 -0.084989
vn -0.372290 -0.882965 -0.285959
vn -0.372290 -0.882965 -0.285959
vn -0.372290 -0.882965 -0.285959
vn 0.129010 -0.609838 0.781955
vn 0.129010 -0.609838 0.781955
vn 0.129010 -0.609838 0.781955
vn 0.532501 -0.673595 0.512556
vn 0.532501 -0.673595 0.512556
vn 0.532501 -0.673595 0.512556
vn 0.472987 0.879785 -0.047561
vn 0.472987 0.879785 -0.047561
vn 0.472987 0.879785 -0.047561
vn 0.811024 -0.357642 -0.462960
vn 0.811024 -0.357642 -0.462960
vn 0.811024 -0.357642 -0.462960
vn 0.966329 -0.223455 0.127582
vn 0.966329 -0.223455 0.127582
vn 0.966329 -0.223455 0.127582
vn -0.085890 0.977632 0.191986
vn -0.085890 0.977632 0.191986
vn -0.085890 0.977632 0.191986
vn 0.054958 0.996395 -0.064634
vn 0.054958 0.996395 -0.064634
vn 0.054958 0.996395 -0.064634
vn -0.243014 -0.964797 -0.100549
vn -0.243014 -0.964797 -0.100549
vn -0.243014 -0.964797 -0.100549
vn 0.597555 -0.683744 -0.418835
vn 0.597555 -0.683744 -0.418835
vn 0.597555 -0.683744 -0.418835
vn 0.262616 -0.480074 -0.836996
vn 0.262616 -0.480074 -0.836996
vn 0.262616 -0.480074 -0.836996
vn 0.606041 -0.675127 -0.420617
vn 0.606041 -0.675127 -0.420617
vn 0.606041 -0.675127 -0.420617
vn -0.119093 -0.472985 -0.872984
vn -0.119093 -0.472985 -0.872984
vn -0.119093 -0.472985 -0.872984
s off
g cloud3 clouds island_obj
usemtl pasted__IcosphereSG2
f 21/30/1 15/26/2 9/14/3
f 6/9/4 15/26/5 21/30/6
f 1/20/7 28/34/8 15/26/9
f 21/30/10 10/6/11 7/32/12
f 21/30/13 7/32/14 17/33/15
f 12/21/16 9/14/17 15/26/18
f 6/9/19 21/30/20 22/22/21
f 1/20/22 6/9/23 22/22/24
f 21/30/25 9/14/26 10/6/27
f 12/21/28 3/1/29 4/28/30
f 1/20/31 15/26/32 6/9/33
f 12/21/34 4/28/35 9/14/36
f 8/24/37 23/11/38 19/15/39
f 15/26/40 2/13/41 12/21/42
f 1/20/43 22/22/44 20/7/45
f 28/34/46 11/29/47 29/23/48
f 13/10/49 31/5/50 24/3/51
f 3/1/52 24/3/53 4/28/54
f 4/28/55 24/3/56 14/2/57
f 22/22/58 21/30/59 17/33/60
f 3/1/61 13/10/62 24/3/63
f 8/24/64 30/16/65 23/11/66
f 4/28/67 14/2/68 9/14/69
f 1/20/70 20/7/71 28/34/72
f 7/32/73 8/24/74 19/15/75
f 11/29/76 28/34/77 34/4/78
f 27/8/79 22/22/80 32/31/81
f 31/5/82 13/10/83 5/17/84
f 22/22/85 27/8/86 20/7/87
f 15/26/88 28/34/89 2/13/90
f 19/15/91 23/11/92 27/8/93
f 11/29/94 25/27/95 33/12/96
f 12/21/97 2/13/98 3/1/99
f 13/10/100 3/1/101 2/13/102
f 22/22/103 17/33/104 32/31/105
f 29/23/106 13/10/107 2/13/108
f 13/10/109 29/23/110 5/17/111
f 11/29/112 33/12/113 29/23/114
f 14/2/115 24/3/116 31/5/117
f 30/16/118 8/24/119 18/25/120
f 30/16/121 18/25/122 25/27/123
f 19/15/124 27/8/125 32/31/126
f 30/16/127 26/19/128 23/11/129
f 8/24/130 7/32/131 10/6/132
f 18/25/133 16/18/134 25/27/135
f 19/15/136 17/33/137 7/32/138
f 19/15/139 32/31/140 17/33/141
f 18/25/142 8/24/143 14/2/144
f 30/16/145 25/27/146 26/19/147
f 16/18/148 31/5/149 5/17/150
f 31/5/151 16/18/152 18/25/153
f 20/7/154 27/8/155 34/4/156
f 29/23/157 2/13/158 28/34/159
f 5/17/160 29/23/161 33/12/162
f 31/5/163 18/25/164 14/2/165
f 16/18/166 33/12/167 25/27/168
f 5/17/169 33/12/170 16/18/171
f 10/6/172 9/14/173 14/2/174
f 8/24/175 10/6/176 14/2/177
f 28/34/178 20/7/179 34/4/180
f 26/19/181 11/29/182 34/4/183
f 23/11/184 26/19/185 34/4/186
f 25/27/187 11/29/188 26/19/189
f 23/11/190 34/4/191 27/8/192
