# This file uses centimeters as units for non-parametric coordinates.

mtllib materials.mtl
g default
v -0.895743 2.681161 7.713950
v -1.666983 2.934863 6.944973
v -1.941921 1.712102 8.416129
v -1.710249 2.601088 8.647244
v -2.553277 2.390853 7.462411
v -2.496345 2.202237 8.032747
v -1.939875 3.170271 8.023433
v -1.309245 3.165010 8.019780
v -2.384988 2.365308 8.420271
v -2.224117 1.875063 7.892995
v -1.437505 2.178388 8.523828
v -2.155407 2.420657 8.683049
v -2.212183 2.166406 7.037197
v -2.481643 3.074890 8.444745
v -2.193675 2.019987 8.323961
v -0.998247 3.182790 7.976132
v -1.555089 2.026734 8.321321
v -2.028421 2.073726 7.480524
v -2.384359 3.125533 7.933587
v -1.248784 3.051319 8.368673
v -2.661563 2.898548 7.824229
v -1.985920 3.098817 8.564132
v -1.707515 1.587088 7.666746
v -1.726861 3.174736 7.622687
v -2.084901 2.940286 7.118352
v -2.334417 2.594486 7.145759
v -0.959899 2.193386 7.946798
v -1.129093 3.126431 7.391641
v -1.404970 3.166746 7.482064
v -1.493037 2.201700 7.080501
v -2.507912 3.087416 7.377765
vt 0.000000 0.000000
vt 0.000000 0.000000
vt 0.000000 0.000000
vt 0.000000 0.000000
vt 0.000000 0.000000
vt 0.000000 0.000000
vt 0.000000 0.000000
vt 0.000000 0.000000
vt 0.000000 0.000000
vt 0.000000 0.000000
vt 0.000000 0.000000
vt 0.000000 0.000000
vt 0.000000 0.000000
vt 0.000000 0.000000
vt 0.000000 0.000000
vt 0.000000 0.000000
vt 0.000000 0.000000
vt 0.000000 0.000000
vt 0.000000 0.000000
vt 0.000000 0.000000
vt 0.000000 0.000000
vt 0.000000 0.000000
vt 0.000000 0.000000
vt 0.000000 0.000000
vt 0.000000 0.000000
vt 0.000000 0.000000
vt 0.000000 0.000000
vt 0.000000 0.000000
vt 0.000000 0.000000
vt 0.000000 0.000000
vt 0.000000 0.000000
vn 0.962516 0.002868 0.271209
vn 0.962516 0.002868 0.271209
vn 0.962516 0.002868 0.271209
vn -0.293332 0.867508 0.401729
vn -0.293332 0.867508 0.401729
vn -0.293332 0.867508 0.401729
vn -0.540712 0.839407 0.055010
vn -0.540712 0.839407 0.055010
vn -0.540712 0.839407 0.055010
vn 0.979823 0.184998 -0.075646
vn 0.979823 0.184998 -0.075646
vn 0.979823 0.184998 -0.075646
vn -0.869823 0.123269 0.477716
vn -0.869823 0.123269 0.477716
vn -0.869823 0.123269 0.477716
vn -0.692980 -0.673733 0.256637
vn -0.692980 -0.673733 0.256637
vn -0.692980 -0.673733 0.256637
vn -0.917293 0.397777 0.018620
vn -0.917293 0.397777 0.018620
vn -0.917293 0.397777 0.018620
vn -0.661318 0.116039 -0.741076
vn -0.661318 0.116039 -0.741076
vn -0.661318 0.116039 -0.741076
vn 0.426461 0.011103 0.904438
vn 0.426461 0.011103 0.904438
vn 0.426461 0.011103 0.904438
vn 0.398717 -0.877000 0.268133
vn 0.398717 -0.877000 0.268133
vn 0.398717 -0.877000 0.268133
vn 0.361653 0.919365 0.154837
vn 0.361653 0.919365 0.154837
vn 0.361653 0.919365 0.154837
vn 0.229629 0.243648 0.942288
vn 0.229629 0.243648 0.942288
vn 0.229629 0.243648 0.942288
vn -0.134004 0.422126 0.896578
vn -0.134004 0.422126 0.896578
vn -0.134004 0.422126 0.896578
vn 0.264849 0.268814 0.926064
vn 0.264849 0.268814 0.926064
vn 0.264849 0.268814 0.926064
vn -0.007828 -0.716015 0.698041
vn -0.007828 -0.716015 0.698041
vn -0.007828 -0.716015 0.698041
vn -0.690905 -0.680757 0.243354
vn -0.690905 -0.680757 0.243354
vn -0.690905 -0.680757 0.243354
vn 0.552330 0.632262 0.543301
vn 0.552330 0.632262 0.543301
vn 0.552330 0.632262 0.543301
vn -0.906674 0.098868 -0.410082
vn -0.906674 0.098868 -0.410082
vn -0.906674 0.098868 -0.410082
vn 0.195606 -0.922061 0.333978
vn 0.195606 -0.922061 0.333978
vn 0.195606 -0.922061 0.333978
vn -0.748158 0.659777 -0.070386
vn -0.748158 0.659777 -0.070386
vn -0.748158 0.659777 -0.070386
vn -0.539672 -0.702488 -0.463966
vn -0.539672 -0.702488 -0.463966
vn -0.539672 -0.702488 -0.463966
vn -0.749466 -0.593335 -0.293690
vn -0.749466 -0.593335 -0.293690
vn -0.749466 -0.593335 -0.293690
vn 0.327165 0.101614 -0.939488
vn 0.327165 0.101614 -0.939488
vn 0.327165 0.101614 -0.939488
vn -0.070977 0.966549 0.246467
vn -0.070977 0.966549 0.246467
vn -0.070977 0.966549 0.246467
vn -0.577820 0.146255 0.802953
vn -0.577820 0.146255 0.802953
vn -0.577820 0.146255 0.802953
vn -0.694930 0.674508 -0.249220
vn -0.694930 0.674508 -0.249220
vn -0.694930 0.674508 -0.249220
vn -0.387697 -0.613253 0.688195
vn -0.387697 -0.613253 0.688195
vn -0.387697 -0.613253 0.688195
vn 0.367447 -0.427943 0.825741
vn 0.367447 -0.427943 0.825741
vn 0.367447 -0.427943 0.825741
vn 0.499805 -0.819897 -0.279220
vn 0.499805 -0.819897 -0.279220
vn 0.499805 -0.819897 -0.279220
vn -0.251461 0.935637 -0.247690
vn -0.251461 0.935637 -0.247690
vn -0.251461 0.935637 -0.247690
vn -0.819986 0.205758 -0.534123
vn -0.819986 0.205758 -0.534123
vn -0.819986 0.205758 -0.534123
vn -0.067419 -0.952100 0.298261
vn -0.067419 -0.952100 0.298261
vn -0.067419 -0.952100 0.298261
vn -0.033169 -0.969175 0.244131
vn -0.033169 -0.969175 0.244131
vn -0.033169 -0.969175 0.244131
vn 0.005263 0.867817 0.496856
vn 0.005263 0.867817 0.496856
vn 0.005263 0.867817 0.496856
vn -0.062582 -0.316716 0.946454
vn -0.062582 -0.316716 0.946454
vn -0.062582 -0.316716 0.946454
vn 0.003168 0.641321 0.767266
vn 0.003168 0.641321 0.767266
vn 0.003168 0.641321 0.767266
vn -0.206214 -0.887741 -0.411572
vn -0.206214 -0.887741 -0.411572
vn -0.206214 -0.887741 -0.411572
vn 0.225566 -0.789096 0.571355
vn 0.225566 -0.789096 0.571355
vn 0.225566 -0.789096 0.571355
vn -0.242238 -0.919684 -0.309033
vn -0.242238 -0.919684 -0.309033
vn -0.242238 -0.919684 -0.309033
vn -0.575274 0.649199 -0.497595
vn -0.575274 0.649199 -0.497595
vn -0.575274 0.649199 -0.497595
vn -0.377918 -0.511428 -0.771764
vn -0.377918 -0.511428 -0.771764
vn -0.377918 -0.511428 -0.771764
vn -0.860562 -0.354232 -0.365996
vn -0.860562 -0.354232 -0.365996
vn -0.860562 -0.354232 -0.365996
vn -0.018638 -0.845124 -0.534246
vn -0.018638 -0.845124 -0.534246
vn -0.018638 -0.845124 -0.534246
vn 0.529188 0.836789 0.140515
vn 0.529188 0.836789 0.140515
vn 0.529188 0.836789 0.140515
vn -0.222795 0.137848 -0.965070
vn -0.222795 0.137848 -0.965070
vn -0.222795 0.137848 -0.965070
vn -0.679897 0.186204 -0.709273
vn -0.679897 0.186204 -0.709273
vn -0.679897 0.186204 -0.709273
vn 0.188638 0.613890 -0.766522
vn 0.188638 0.613890 -0.766522
vn 0.188638 0.613890 -0.766522
vn 0.700992 -0.150769 0.697050
vn 0.700992 -0.150769 0.697050
vn 0.700992 -0.150769 0.697050
vn 0.507180 -0.707823 0.491687
vn 0.507180 -0.707823 0.491687
vn 0.507180 -0.707823 0.491687
vn 0.190844 0.842998 0.502924
vn 0.190844 0.842998 0.502924
vn 0.190844 0.842998 0.502924
vn 0.846154 -0.003330 0.532929
vn 0.846154 -0.003330 0.532929
vn 0.846154 -0.003330 0.532929
vn -0.362728 0.289277 -0.885860
vn -0.362728 0.289277 -0.885860
vn -0.362728 0.289277 -0.885860
vn 0.828544 -0.265491 -0.492980
vn 0.828544 -0.265491 -0.492980
vn 0.828544 -0.265491 -0.492980
vn -0.194921 0.634873 -0.747624
vn -0.194921 0.634873 -0.747624
vn -0.194921 0.634873 -0.747624
vn -0.073532 0.754410 -0.652272
vn -0.073532 0.754410 -0.652272
vn -0.073532 0.754410 -0.652272
vn 0.691853 0.715785 -0.094818
vn 0.691853 0.715785 -0.094818
vn 0.691853 0.715785 -0.094818
vn -0.099465 -0.143702 -0.984610
vn -0.099465 -0.143702 -0.984610
vn -0.099465 -0.143702 -0.984610
vn 0.830224 -0.325291 -0.452674
vn 0.830224 -0.325291 -0.452674
vn 0.830224 -0.325291 -0.452674
s off
g pasted__Icosphere pasted__island group1
usemtl stone1SG
f 27/7/1 1/18/2 16/16/3
f 22/20/4 7/29/5 19/13/6
f 7/29/7 24/3/8 31/4/9
f 1/18/10 28/31/11 16/16/12
f 14/2/13 6/8/14 9/12/15
f 6/8/16 10/5/17 15/24/18
f 6/8/19 14/2/20 21/28/21
f 5/15/22 31/4/23 26/17/24
f 11/27/25 20/6/26 4/26/27
f 27/7/28 17/30/29 23/10/30
f 8/22/31 29/21/32 24/3/33
f 12/19/34 4/26/35 22/20/36
f 14/2/37 12/19/38 22/20/39
f 20/6/40 22/20/41 4/26/42
f 3/1/43 12/19/44 15/24/45
f 9/12/46 6/8/47 15/24/48
f 8/22/49 20/6/50 16/16/51
f 5/15/52 6/8/53 21/28/54
f 23/10/55 17/30/56 3/1/57
f 19/13/58 21/28/59 14/2/60
f 10/5/61 5/15/62 18/23/63
f 6/8/64 5/15/65 10/5/66
f 28/31/67 30/14/68 2/11/69
f 22/20/70 19/13/71 14/2/72
f 12/19/73 14/2/74 9/12/75
f 21/28/76 19/13/77 31/4/78
f 12/19/79 9/12/80 15/24/81
f 12/19/82 3/1/83 4/26/84
f 27/7/85 23/10/86 30/14/87
f 19/13/88 7/29/89 31/4/90
f 21/28/91 31/4/92 5/15/93
f 10/5/94 3/1/95 15/24/96
f 3/1/97 10/5/98 23/10/99
f 7/29/100 8/22/101 24/3/102
f 3/1/103 11/27/104 4/26/105
f 8/22/106 7/29/107 20/6/108
f 13/9/109 23/10/110 18/23/111
f 11/27/112 3/1/113 17/30/114
f 23/10/115 10/5/116 18/23/117
f 2/11/118 25/25/119 24/3/120
f 18/23/121 5/15/122 26/17/123
f 18/23/124 26/17/125 13/9/126
f 13/9/127 30/14/128 23/10/129
f 29/21/130 8/22/131 16/16/132
f 13/9/133 26/17/134 25/25/135
f 13/9/136 25/25/137 2/11/138
f 28/31/139 2/11/140 29/21/141
f 11/27/142 27/7/143 20/6/144
f 17/30/145 27/7/146 11/27/147
f 7/29/148 22/20/149 20/6/150
f 16/16/151 20/6/152 27/7/153
f 25/25/154 26/17/155 31/4/156
f 28/31/157 1/18/158 30/14/159
f 25/25/160 31/4/161 24/3/162
f 2/11/163 24/3/164 29/21/165
f 16/16/166 28/31/167 29/21/168
f 13/9/169 2/11/170 30/14/171
f 1/18/172 27/7/173 30/14/174
